<svg width="13" height="16" viewBox="0 0 13 16" fill="none" xmlns="http://www.w3.org/2000/svg">
<path d="M4.58824 12.871C4.16765 12.871 3.8076 12.7213 3.50809 12.4218C3.20858 12.1223 3.05882 11.7622 3.05882 11.3416V2.16515C3.05882 1.74457 3.20858 1.38452 3.50809 1.08501C3.8076 0.785497 4.16765 0.635742 4.58824 0.635742H11.4706C11.8912 0.635742 12.2512 0.785497 12.5507 1.08501C12.8502 1.38452 13 1.74457 13 2.16515V11.3416C13 11.7622 12.8502 12.1223 12.5507 12.4218C12.2512 12.7213 11.8912 12.871 11.4706 12.871H4.58824ZM4.58824 11.3416H11.4706V2.16515H4.58824V11.3416ZM1.52941 15.9299C1.10882 15.9299 0.748775 15.7801 0.449265 15.4806C0.149755 15.1811 0 14.821 0 14.4004V3.69457H1.52941V14.4004H9.94118V15.9299H1.52941Z" fill="#1434CB"/>
</svg>
