<svg width="86" height="86" viewBox="0 0 86 86" fill="none" xmlns="http://www.w3.org/2000/svg">
<path d="M13.556 10.1265L43 3.58337L72.4439 10.1265C74.0836 10.4908 75.25 11.945 75.25 13.6245V49.4103C75.25 56.5988 71.6573 63.3118 65.676 67.2993L43 82.4167L20.3239 67.2993C14.3427 63.3118 10.75 56.5988 10.75 49.4103V13.6245C10.75 11.945 11.9165 10.4908 13.556 10.1265ZM17.9167 16.4989V49.4103C17.9167 54.2026 20.3118 58.6778 24.2993 61.3363L43 73.8035L61.7007 61.3363C65.6882 58.6778 68.0833 54.2026 68.0833 49.4103V16.4989L43 10.9249L17.9167 16.4989ZM43 39.4167C38.0525 39.4167 34.0417 35.4059 34.0417 30.4584C34.0417 25.5108 38.0525 21.5 43 21.5C47.9475 21.5 51.9583 25.5108 51.9583 30.4584C51.9583 35.4059 47.9475 39.4167 43 39.4167ZM26.9734 57.3334C27.8647 49.2709 34.7 43 43 43C51.3001 43 58.1353 49.2709 59.0265 57.3334H26.9734Z" fill="#1434CB"/>
</svg>
