<svg width="50" height="50" viewBox="0 0 50 50" fill="none" xmlns="http://www.w3.org/2000/svg">
<path d="M18.357 9.61875C21.3133 4.31741 22.7903 1.66675 25 1.66675C27.2097 1.66675 28.6867 4.31741 31.643 9.61875L32.4083 10.9907C33.2483 12.4981 33.6683 13.2517 34.3217 13.7487C34.975 14.2457 35.7917 14.4301 37.425 14.7987L38.909 15.1347C44.649 16.4344 47.5167 17.0831 48.2003 19.2787C48.8817 21.4721 46.9263 23.7611 43.0133 28.3367L42.0007 29.5197C40.89 30.8194 40.3323 31.4704 40.0827 32.2731C39.833 33.0781 39.917 33.9461 40.085 35.6797L40.239 37.2594C40.8293 43.3657 41.1257 46.4177 39.3383 47.7734C37.551 49.1291 34.863 47.8924 29.4917 45.4191L28.0987 44.7797C26.5727 44.0751 25.8097 43.7251 25 43.7251C24.1903 43.7251 23.4273 44.0751 21.9013 44.7797L20.5107 45.4191C15.137 47.8924 12.449 49.1291 10.664 47.7757C8.87432 46.4177 9.17066 43.3657 9.76099 37.2594L9.91499 35.6821C10.083 33.9461 10.167 33.0781 9.91499 32.2754C9.66765 31.4704 9.10999 30.8194 7.99932 29.5221L6.98666 28.3367C3.07366 23.7634 1.11832 21.4744 1.79966 19.2787C2.48099 17.0831 5.35332 16.4321 11.0933 15.1347L12.5773 14.7987C14.2083 14.4301 15.0227 14.2457 15.6783 13.7487C16.334 13.2517 16.7517 12.4981 17.5917 10.9907L18.357 9.61875Z" fill="#FCC015" stroke="#FCC015" stroke-width="1.5"/>
</svg>
